<svg xmlns="http://www.w3.org/2000/svg" width="148.547" height="116.853" viewBox="0 0 148.547 116.853">
  <g id="levels" transform="translate(0 -38.187)">
    <g id="Group_2" data-name="Group 2" transform="translate(0 38.187)">
      <g id="Group_1" data-name="Group 1">
        <path id="Path_3" data-name="Path 3" d="M140.481,38.187H8.173A8.081,8.081,0,0,0,.107,46.253v98.9a1.3,1.3,0,0,0-.107.535,1.192,1.192,0,0,0,.107.535v.749a8.081,8.081,0,0,0,8.066,8.066H140.48a8.081,8.081,0,0,0,8.066-8.066V46.253A8.08,8.08,0,0,0,140.481,38.187Zm5.6,108.644a5.765,5.765,0,0,1-5.746,5.746H8.03a5.765,5.765,0,0,1-5.746-5.746H135.627a1.178,1.178,0,1,0,0-2.355H2.284V46.11a5.765,5.765,0,0,1,5.746-5.746H140.338a5.765,5.765,0,0,1,5.746,5.746V146.831Z" transform="translate(0 -38.187)"/>
      </g>
    </g>
    <g id="Group_4" data-name="Group 4" transform="translate(23.378 53.249)">
      <g id="Group_3" data-name="Group 3">
        <path id="Path_4" data-name="Path 4" d="M66.97,84.868V77.3c0-1.035-.464-2.819-3.034-2.819h-.25c-2.356,0-3.855,1.178-3.855,2.819v7.5a7,7,0,0,0-.107,12.063v54.822c0,2,2.106,3.5,3.855,3.5h.25a3.224,3.224,0,0,0,3.034-3.5V96.932a7,7,0,0,0,.107-12.064Zm-3.248-8.031h.25c.464,0,.571.107.571.107v7.031a6.531,6.531,0,0,0-2.355,0V77.3C62.188,77.052,62.9,76.837,63.722,76.837Zm.071,76.058h-.25c-.714,0-1.535-.714-1.535-1.178V97.788a7.8,7.8,0,0,0,1.285.107,6.571,6.571,0,0,0,1.178-.107v53.93h.036C64.507,151.825,64.507,152.9,63.794,152.9ZM63.365,95.54a4.676,4.676,0,1,1,4.676-4.676A4.691,4.691,0,0,1,63.365,95.54Z" transform="translate(-56.334 -74.482)"/>
      </g>
    </g>
    <g id="Group_6" data-name="Group 6" transform="translate(45.613 53.249)">
      <g id="Group_5" data-name="Group 5">
        <path id="Path_5" data-name="Path 5" d="M120.445,123.629V77.3c0-.714-.25-2.819-3.141-2.819h-.25c-2.213,0-3.641,1.035-3.641,2.819v46.327a7,7,0,0,0-3.5,6.067,7.079,7.079,0,0,0,3.5,6.067v15.918a3.7,3.7,0,0,0,3.641,3.5h.25a3.305,3.305,0,0,0,3.141-3.5V135.763a7,7,0,0,0,3.5-6.067A7.125,7.125,0,0,0,120.445,123.629ZM115.77,77.3c0-.357.928-.464,1.285-.464h.25c.821,0,.821.25.821.464v45.506a6.531,6.531,0,0,0-2.355,0Zm2.32,74.416c0,.571-.25,1.178-.821,1.178h-.25a1.372,1.372,0,0,1-1.285-1.178v-15.1a6.531,6.531,0,0,0,2.355,0Zm-1.178-17.346a4.676,4.676,0,1,1,4.676-4.676A4.692,4.692,0,0,1,116.912,134.372Z" transform="translate(-109.916 -74.482)"/>
      </g>
    </g>
    <g id="Group_8" data-name="Group 8" transform="translate(67.813 53.249)">
      <g id="Group_7" data-name="Group 7">
        <path id="Path_6" data-name="Path 6" d="M173.942,108.424V77.3c0-1.392-.928-2.819-3.391-2.819h-.25c-2.463,0-3.391,1.392-3.391,2.819v31.123a7,7,0,0,0-3.5,6.067,7.079,7.079,0,0,0,3.5,6.067v31.123a3.506,3.506,0,0,0,3.391,3.5h.25a3.506,3.506,0,0,0,3.391-3.5V120.559a7,7,0,0,0,3.5-6.067A6.931,6.931,0,0,0,173.942,108.424ZM169.231,77.3h.036c0-.107,0-.464,1.035-.464h.25c1.035,0,1.035.357,1.035.464v30.3a6.532,6.532,0,0,0-2.355,0Zm2.427,74.417h-.036a1.167,1.167,0,0,1-1.035,1.178h-.25a1.23,1.23,0,0,1-1.035-1.178v-30.3a6.531,6.531,0,0,0,2.355,0v30.3Zm-1.213-32.551a4.676,4.676,0,1,1,4.676-4.676A4.692,4.692,0,0,1,170.444,119.167Z" transform="translate(-163.413 -74.482)"/>
      </g>
    </g>
    <g id="Group_10" data-name="Group 10" transform="translate(90.013 53.249)">
      <g id="Group_9" data-name="Group 9">
        <path id="Path_7" data-name="Path 7" d="M227.474,137.334V77.3c0-1.749-1.392-2.819-3.641-2.819h-.25c-3.034,0-3.284,2.106-3.284,2.819v60.1a7,7,0,0,0,0,11.992v2.32a3.4,3.4,0,0,0,3.284,3.5h.25a3.73,3.73,0,0,0,3.641-3.5v-2.249a7,7,0,0,0,3.5-6.067A6.888,6.888,0,0,0,227.474,137.334ZM222.691,77.3c0-.25,0-.464.928-.464h.25s1.285,0,1.285.464v59.176a6.571,6.571,0,0,0-1.178-.107,7.8,7.8,0,0,0-1.285.107Zm2.462,74.416a1.406,1.406,0,0,1-1.285,1.178h-.25a1.061,1.061,0,0,1-.928-1.178V150.29a7.8,7.8,0,0,0,1.285.107,6.572,6.572,0,0,0,1.178-.107v1.428Zm-1.178-3.534a4.676,4.676,0,1,1,4.676-4.676A4.691,4.691,0,0,1,223.976,148.184Z" transform="translate(-216.909 -74.482)"/>
      </g>
    </g>
    <g id="Group_12" data-name="Group 12" transform="translate(112.249 53.249)">
      <g id="Group_11" data-name="Group 11">
        <path id="Path_8" data-name="Path 8" d="M284.519,95.932a6.987,6.987,0,0,0-3.462-6.1V77.3c0-1.642-1.535-2.819-3.747-2.819h-.25a2.713,2.713,0,0,0-3.034,2.819V89.829A6.956,6.956,0,0,0,274.133,102a1.5,1.5,0,0,0-.143.571v49.147a3.2,3.2,0,0,0,3.034,3.5h.25a3.825,3.825,0,0,0,3.747-3.5V102.571a1.14,1.14,0,0,0-.107-.5A6.968,6.968,0,0,0,284.519,95.932Zm-8.137-18.988a1.97,1.97,0,0,1,.714-.107h.25c.821,0,1.392.25,1.392.464V88.972a6.531,6.531,0,0,0-2.355,0V77.3C276.381,77.052,276.381,76.945,276.381,76.945Zm.928,75.951h-.25c-.714,0-.714-1.178-.714-1.178v-48.9a6.532,6.532,0,0,0,2.355,0v48.9C278.7,152.182,277.88,152.9,277.309,152.9Zm.107-52.18a4.382,4.382,0,0,1-1.749-.357,4.933,4.933,0,0,1-2.819-4.319,4.692,4.692,0,0,1,4.676-4.676,4.6,4.6,0,0,1,4.568,4.676A4.692,4.692,0,0,1,277.416,100.715Z" transform="translate(-270.492 -74.482)"/>
      </g>
    </g>
  </g>
</svg>
