<?xml version="1.0" encoding="iso-8859-1"?>
<!-- Generator: Adobe Illustrator 19.0.0, SVG Export Plug-In . SVG Version: 6.00 Build 0)  -->
<svg version="1.1" id="Layer_1" xmlns="http://www.w3.org/2000/svg" xmlns:xlink="http://www.w3.org/1999/xlink" x="0px" y="0px"
	 viewBox="0 0 500.08 500.08" style="enable-background:new 0 0 500.08 500.08;" xml:space="preserve">
<g>
	<g>
		<path d="M498.396,492.734L6.828,1.25c-1.144-1.144-2.864-1.492-4.36-0.868C0.972,0.998,0,2.462,0,4.078v491.924
			c0,2.212,1.788,4,4,4h492c0.028,0.004,0.06,0.004,0.08,0c2.212,0,4-1.792,4-4.004C500.08,494.65,499.416,493.462,498.396,492.734z
			 M8,492.002V13.734l478.344,478.268H8z"/>
	</g>
</g>
<g>
	<g>
		<path d="M291.668,407.362L92.356,207.93c-1.564-1.564-4.092-1.564-5.656,0c-1.164,1.164-1.464,2.868-0.892,4.304v197.96
			c0,2.212,1.788,4,4,4H288.84c1.62,0,3.076-0.976,3.696-2.472C293.156,410.226,292.812,408.506,291.668,407.362z M93.808,406.194
			V220.702l185.38,185.492H93.808z"/>
	</g>
</g>
<g>
	<g>
		<path d="M250.248,249.362c-1.564-1.564-4.092-1.564-5.656,0l-27.54,27.54c-1.564,1.564-1.564,4.092,0,5.656
			c0.78,0.78,1.804,1.172,2.828,1.172s2.048-0.388,2.828-1.172l27.54-27.54C251.812,253.454,251.812,250.926,250.248,249.362z"/>
	</g>
</g>
<g>
	<g>
		<path d="M79.344,77.83c-1.564-1.564-4.092-1.564-5.656,0l-27.54,27.54c-1.564,1.564-1.564,4.092,0,5.656
			c0.78,0.78,1.804,1.172,2.828,1.172s2.048-0.392,2.828-1.172l27.54-27.54C80.908,81.922,80.908,79.394,79.344,77.83z"/>
	</g>
</g>
<g>
	<g>
		<path d="M115.9,109.766c-1.564-1.564-4.092-1.564-5.656,0l-12.316,12.308c-1.564,1.56-1.564,4.092,0,5.656
			c0.78,0.78,1.804,1.172,2.828,1.172c1.024,0,2.044-0.388,2.828-1.172l12.316-12.308C117.464,113.862,117.464,111.33,115.9,109.766
			z"/>
	</g>
</g>
<g>
	<g>
		<path d="M149.792,144.354c-1.564-1.564-4.092-1.564-5.656,0l-12.312,12.316c-1.564,1.564-1.564,4.092,0,5.656
			c0.78,0.78,1.804,1.172,2.828,1.172c1.024,0,2.048-0.392,2.828-1.172l12.312-12.316
			C151.356,148.446,151.356,145.918,149.792,144.354z"/>
	</g>
</g>
<g>
	<g>
		<path d="M180.324,182.314c-1.564-1.564-4.092-1.564-5.656,0l-8.316,8.316c-1.564,1.564-1.564,4.092,0,5.656
			c0.78,0.78,1.804,1.172,2.828,1.172c1.024,0,2.048-0.392,2.828-1.172l8.316-8.316
			C181.888,186.406,181.888,183.878,180.324,182.314z"/>
	</g>
</g>
<g>
	<g>
		<path d="M218.44,212.678c-1.564-1.564-4.092-1.564-5.656,0l-12.312,12.316c-1.564,1.564-1.564,4.092,0,5.656
			c0.78,0.78,1.804,1.172,2.828,1.172c1.024,0,2.048-0.392,2.828-1.172l12.312-12.316
			C220.004,216.77,220.004,214.242,218.44,212.678z"/>
	</g>
</g>
<g>
	<g>
		<path d="M421.704,420.818c-1.564-1.564-4.092-1.564-5.656,0l-27.54,27.54c-1.564,1.564-1.564,4.092,0,5.656
			c0.78,0.78,1.804,1.172,2.828,1.172s2.048-0.392,2.828-1.172l27.54-27.54C423.268,424.91,423.268,422.382,421.704,420.818z"/>
	</g>
</g>
<g>
	<g>
		<path d="M283.348,285.218c-1.564-1.564-4.092-1.564-5.656,0l-8.308,8.316c-1.564,1.564-1.564,4.096,0,5.656
			c0.78,0.78,1.804,1.172,2.828,1.172c1.024,0,2.048-0.392,2.828-1.172l8.308-8.316C284.912,289.31,284.912,286.778,283.348,285.218
			z"/>
	</g>
</g>
<g>
	<g>
		<path d="M321.248,315.806c-1.564-1.564-4.092-1.564-5.656,0l-12.316,12.32c-1.564,1.564-1.564,4.092,0,5.656
			c0.78,0.78,1.804,1.172,2.828,1.172c1.024,0,2.044-0.392,2.828-1.172l12.316-12.32
			C322.812,319.898,322.812,317.37,321.248,315.806z"/>
	</g>
</g>
<g>
	<g>
		<path d="M351.772,353.766c-1.564-1.564-4.092-1.564-5.656,0l-8.312,8.312c-1.564,1.564-1.564,4.092,0,5.656
			c0.78,0.78,1.804,1.172,2.828,1.172c1.024,0,2.048-0.388,2.828-1.172l8.312-8.312C353.336,357.858,353.336,355.33,351.772,353.766
			z"/>
	</g>
</g>
<g>
	<g>
		<path d="M385.896,388.13c-1.564-1.564-4.092-1.564-5.656,0l-8.312,8.312c-1.564,1.564-1.564,4.092,0,5.656
			c0.78,0.78,1.804,1.172,2.828,1.172c1.024,0,2.044-0.392,2.828-1.172l8.312-8.312C387.46,392.222,387.46,389.694,385.896,388.13z"
			/>
	</g>
</g>
<g>
</g>
<g>
</g>
<g>
</g>
<g>
</g>
<g>
</g>
<g>
</g>
<g>
</g>
<g>
</g>
<g>
</g>
<g>
</g>
<g>
</g>
<g>
</g>
<g>
</g>
<g>
</g>
<g>
</g>
</svg>
